# xmcd
# 
# Track frame offsets:
#     150
#     23138
#     47928
#     67623
#     89323
#     92969
#     114381
#     136776
#     155684
#     183569
#     206472
#     229982
#     232687
#     251299
#     281334
# 
# Disc length: 3983
# 
# Revision: 0
# Processed by: cddbd v1.5.2PL0 Copyright (c) Steve Scherf et al.
# Submitted via: fre:ac v1.0.17
# 
DISCID=bd0f8d0f
DTITLE=Various Artist - Maechtig viel Theater
DYEAR=1998
DGENRE=Deutsch-Rock
TTITLE0=PUR - Wenn Du da bist
TTITLE1=PUR - Treib mich weiter
TTITLE2=PUR - Mach es nochmal
TTITLE3=PUR - Kinder sind tabu
TTITLE4=PUR - Merlin's Pummelflug
TTITLE5=PUR - Koenigin
TTITLE6=PUR - Allein vor dem Spiegel
TTITLE7=PUR - Endlich ich
TTITLE8=PUR - Gib sie her
TTITLE9=PUR - Kleiner Prinz
TTITLE10=PUR - Maechtig viel Theater
TTITLE11=PUR - Kowalski 6
TTITLE12=PUR - Der Dumme
TTITLE13=PUR - Ich will raus hier
TTITLE14=PUR - Geweint vor Glück
EXTD=YEAR: 1998
EXTT0=
EXTT1=
EXTT2=
EXTT3=
EXTT4=
EXTT5=
EXTT6=
EXTT7=
EXTT8=
EXTT9=
EXTT10=
EXTT11=
EXTT12=
EXTT13=
EXTT14=
PLAYORDER=
